<svg version="1" xmlns="http://www.w3.org/2000/svg" width="1389.333" height="1389.333" viewBox="0 0 1042.000000 1042.000000"><path d="M0 521v521h1042V0H0v521zM947.8 77.9c-3.5 6.5-112.7 211.4-242.8 455.4L468.5 976.9l-140 .1h-140l9-5.1c22-12.6 50.1-32.5 73.5-51.9 15.8-13.2 47.4-44.7 61.2-61 68.3-81 109.8-177.5 121.3-282.5 2.2-20.3 3.1-69.4 1.6-91C443.2 315.6 350 162.7 204.9 74.9c-7.4-4.4-13.6-8.3-13.8-8.5-.2-.2 171.3-.4 381.3-.4h381.7l-6.3 11.9zM80.1 89.6C240.2 144.4 356.3 280.7 383.9 446c7.1 42.3 8 90.7 2.5 133.5-9.9 77.3-40.5 152.6-87.5 215.1-27.8 36.9-65.3 73.2-103.5 100-25.1 17.6-57.6 35.4-85.3 46.9-12.6 5.3-41.3 15.5-43.2 15.5-.5 0-.9-190.8-.9-436 0-239.8.2-436 .4-436s6.4 2.1 13.7 4.6zM976 572v405H760c-118.8 0-216-.3-216-.6 0-.7 431.3-809.4 431.7-809.4.2 0 .3 182.2.3 405z"/></svg>