<?xml version="1.0" standalone="no"?>
<!DOCTYPE svg PUBLIC "-//W3C//DTD SVG 20010904//EN"
 "http://www.w3.org/TR/2001/REC-SVG-20010904/DTD/svg10.dtd">
<svg version="1.0" xmlns="http://www.w3.org/2000/svg"
 width="1042.000000pt" height="1042.000000pt" viewBox="0 0 1042.000000 1042.000000"
 preserveAspectRatio="xMidYMid meet">
<metadata>
Created by potrace 1.11, written by Peter Selinger 2001-2013
</metadata>
<g transform="translate(0.000000,1042.000000) scale(0.100000,-0.100000)"
fill="#000000" stroke="none">
<path d="M0 5210 l0 -5210 5210 0 5210 0 0 5210 0 5210 -5210 0 -5210 0 0
-5210z m9478 4431 c-35 -65 -1127 -2114 -2428 -4554 l-2365 -4436 -1400 -1
-1400 0 90 51 c220 126 501 325 735 519 158 132 474 447 612 610 683 810 1098
1775 1213 2825 22 203 31 694 16 910 -119 1699 -1051 3228 -2502 4106 -74 44
-136 83 -138 85 -2 2 1713 4 3813 4 l3817 0 -63 -119z m-8677 -117 c1601 -548
2762 -1911 3038 -3564 71 -423 80 -907 25 -1335 -99 -773 -405 -1526 -875
-2151 -278 -369 -653 -732 -1035 -1000 -251 -176 -576 -354 -853 -469 -126
-53 -413 -155 -432 -155 -5 0 -9 1908 -9 4360 0 2398 2 4360 4 4360 2 0 64
-21 137 -46z m8959 -4824 l0 -4050 -2160 0 c-1188 0 -2160 3 -2160 6 0 7 4313
8094 4317 8094 2 0 3 -1822 3 -4050z"/>
</g>
</svg>
